<svg xmlns="http://www.w3.org/2000/svg" viewBox="0 0 23.809 24"><defs><style>.a{fill:#fff;}</style></defs><path class="a" d="M2.019,19.88a1.193,1.193,0,0,0,.694,1.083l10.712,4.928c.018.008.038,0,.056.013a1.2,1.2,0,0,0,.442.1,1.166,1.166,0,0,0,.439-.1c.019-.007.039,0,.058-.013l10.712-4.918a1.2,1.2,0,0,0,.7-1.084V7.963h0V7.955a1.153,1.153,0,0,0-.047-.314c-.01-.033-.025-.063-.037-.1a1.249,1.249,0,0,0-.089-.194q-.033-.051-.072-.1a1.169,1.169,0,0,0-.228-.23.875.875,0,0,0-.072-.061,1.108,1.108,0,0,0-.1-.049c-.023-.011-.038-.027-.062-.038L14.409,2.1a1.2,1.2,0,0,0-.971,0L2.726,6.874c-.024.011-.042.027-.063.039s-.068.029-.1.048-.047.041-.072.061a.929.929,0,0,0-.228.23q-.038.048-.072.1a1.3,1.3,0,0,0-.089.194c-.012.033-.029.062-.037.1a1.109,1.109,0,0,0-.047.314V19.88ZM4.4,9.806l8.326,3.738v9.4L4.4,19.116V9.806Zm19.038,9.319-8.326,3.823v-9.4L23.442,9.8ZM13.923,4.5l7.79,3.47-4.3,1.93-3.491,1.567L10.432,9.9l-4.3-1.93Z" transform="translate(-2.019 -2.001)"/></svg>