<svg xmlns="http://www.w3.org/2000/svg" viewBox="0 0 25.263 24"><defs><style>.a{fill:#fff;}</style></defs><path class="a" d="M24.647,7.584a1.266,1.266,0,0,0-1.173-.795H18.421V4.263A1.263,1.263,0,0,0,17.158,3H3.263A1.263,1.263,0,0,0,2,4.263V20.684a1.263,1.263,0,0,0,1.263,1.263H4.591a4.18,4.18,0,0,0-.064.632,4.421,4.421,0,1,0,8.842,0,4.18,4.18,0,0,0-.064-.632h2.655a4.18,4.18,0,0,0-.064.632,4.421,4.421,0,1,0,8.842,0,4.18,4.18,0,0,0-.064-.632H26a1.263,1.263,0,0,0,1.263-1.263V14.368a1.267,1.267,0,0,0-.09-.469ZM18.421,9.316h4.2l1.516,3.789H18.421ZM8.947,24.474a1.895,1.895,0,1,1,1.895-1.895A1.9,1.9,0,0,1,8.947,24.474Zm6.947-5.053H12.031a4.4,4.4,0,0,0-6.241.075v-.075H4.526V5.526H15.895Zm4.421,5.053a1.895,1.895,0,1,1,1.895-1.895A1.9,1.9,0,0,1,20.316,24.474ZM23.4,19.421a4.4,4.4,0,0,0-3.083-1.263,4.359,4.359,0,0,0-1.895.445V15.632h6.316v3.789Z" transform="translate(-2 -3)"/></svg>